<mxfile host="app.diagrams.net" modified="2021-05-20T12:46:08.632Z" agent="5.0 (Macintosh; Intel Mac OS X 10_15_7) AppleWebKit/537.36 (KHTML, like Gecko) Chrome/90.0.4430.212 Safari/537.36" etag="KxpTP-dtItEC1R8vYmPZ" version="14.6.13" type="github">
  <diagram id="9P2wy7Xop65OuSLC-s6k" name="Page-1">
    <mxGraphModel dx="956" dy="534" grid="1" gridSize="10" guides="1" tooltips="1" connect="1" arrows="1" fold="1" page="1" pageScale="1" pageWidth="827" pageHeight="1169" math="0" shadow="0">
      <root>
        <mxCell id="0" />
        <mxCell id="1" parent="0" />
        <mxCell id="sijyfpa68olpAA5hHK4S-1" value="" style="whiteSpace=wrap;html=1;aspect=fixed;" vertex="1" parent="1">
          <mxGeometry x="270" y="40" width="120" height="120" as="geometry" />
        </mxCell>
        <mxCell id="sijyfpa68olpAA5hHK4S-2" value="Login" style="text;html=1;strokeColor=none;fillColor=none;align=center;verticalAlign=middle;whiteSpace=wrap;rounded=0;" vertex="1" parent="1">
          <mxGeometry x="300" y="80" width="70" height="20" as="geometry" />
        </mxCell>
        <mxCell id="sijyfpa68olpAA5hHK4S-3" value="" style="html=1;shadow=0;dashed=0;align=center;verticalAlign=middle;shape=mxgraph.arrows2.arrow;dy=0.6;dx=40;notch=0;" vertex="1" parent="1">
          <mxGeometry x="390" y="90" width="100" height="70" as="geometry" />
        </mxCell>
      </root>
    </mxGraphModel>
  </diagram>
</mxfile>
